<mxfile host="65bd71144e">
    <diagram id="Xo7E7oVpsRgtH6o82BUI" name="Page-1">
        <mxGraphModel dx="2208" dy="826" grid="1" gridSize="10" guides="1" tooltips="1" connect="1" arrows="1" fold="1" page="1" pageScale="1" pageWidth="900" pageHeight="1600" math="0" shadow="0">
            <root>
                <mxCell id="0"/>
                <mxCell id="1" parent="0"/>
                <mxCell id="38" value="" style="rounded=0;whiteSpace=wrap;html=1;fillColor=#540800;strokeColor=#ae4132;fillStyle=hatch;movable=1;resizable=1;rotatable=1;deletable=1;editable=1;connectable=1;" parent="1" vertex="1">
                    <mxGeometry x="130" y="440" width="320" height="280" as="geometry"/>
                </mxCell>
                <mxCell id="86" value="" style="rounded=0;whiteSpace=wrap;html=1;fillColor=#000066;strokeColor=#007FFF;fillStyle=hatch;movable=1;resizable=1;rotatable=1;deletable=1;editable=1;connectable=1;" vertex="1" parent="1">
                    <mxGeometry x="450" y="440" width="320" height="280" as="geometry"/>
                </mxCell>
                <mxCell id="37" value="" style="rounded=0;whiteSpace=wrap;html=1;fillColor=#423C35;strokeColor=#d79b00;fillStyle=hatch;movable=1;resizable=1;rotatable=1;deletable=1;editable=1;connectable=1;" parent="1" vertex="1">
                    <mxGeometry x="130" y="340" width="640" height="100" as="geometry"/>
                </mxCell>
                <mxCell id="45" style="edgeStyle=none;html=1;entryX=0.75;entryY=1;entryDx=0;entryDy=0;fillColor=#b0e3e6;strokeColor=#0e8088;movable=0;resizable=0;rotatable=0;deletable=0;editable=0;connectable=0;" parent="1" target="5" edge="1">
                    <mxGeometry relative="1" as="geometry">
                        <mxPoint x="240" y="450" as="sourcePoint"/>
                    </mxGeometry>
                </mxCell>
                <mxCell id="68" style="edgeStyle=none;html=1;exitX=0.25;exitY=1;exitDx=0;exitDy=0;entryX=0.75;entryY=0;entryDx=0;entryDy=0;fillColor=#dae8fc;strokeColor=#6c8ebf;movable=0;resizable=0;rotatable=0;deletable=0;editable=0;connectable=0;startArrow=classic;startFill=1;endArrow=none;endFill=0;" parent="1" source="2" target="4" edge="1">
                    <mxGeometry relative="1" as="geometry">
                        <Array as="points">
                            <mxPoint x="280" y="600"/>
                            <mxPoint x="240" y="600"/>
                        </Array>
                    </mxGeometry>
                </mxCell>
                <mxCell id="70" style="edgeStyle=none;html=1;exitX=0.75;exitY=1;exitDx=0;exitDy=0;entryX=0;entryY=0.5;entryDx=0;entryDy=0;fillColor=#d5e8d4;strokeColor=#82b366;movable=0;resizable=0;rotatable=0;deletable=0;editable=0;connectable=0;" parent="1" source="2" target="9" edge="1">
                    <mxGeometry relative="1" as="geometry">
                        <Array as="points">
                            <mxPoint x="340" y="670"/>
                        </Array>
                    </mxGeometry>
                </mxCell>
                <mxCell id="2" value="WEB" style="rounded=0;whiteSpace=wrap;html=1;movable=0;resizable=0;rotatable=0;deletable=0;editable=0;connectable=0;" parent="1" vertex="1">
                    <mxGeometry x="250" y="500" width="120" height="60" as="geometry"/>
                </mxCell>
                <mxCell id="69" style="edgeStyle=none;html=1;exitX=0.75;exitY=1;exitDx=0;exitDy=0;entryX=0.25;entryY=0;entryDx=0;entryDy=0;fillColor=#d5e8d4;strokeColor=#82b366;movable=0;resizable=0;rotatable=0;deletable=0;editable=0;connectable=0;" parent="1" source="3" target="9" edge="1">
                    <mxGeometry relative="1" as="geometry">
                        <Array as="points">
                            <mxPoint x="620" y="600"/>
                            <mxPoint x="660" y="600"/>
                        </Array>
                    </mxGeometry>
                </mxCell>
                <mxCell id="71" style="edgeStyle=none;html=1;exitX=0.25;exitY=1;exitDx=0;exitDy=0;entryX=1;entryY=0.5;entryDx=0;entryDy=0;fillColor=#dae8fc;strokeColor=#6c8ebf;movable=0;resizable=0;rotatable=0;deletable=0;editable=0;connectable=0;endArrow=none;endFill=0;startArrow=classic;startFill=1;" parent="1" source="3" target="4" edge="1">
                    <mxGeometry relative="1" as="geometry">
                        <Array as="points">
                            <mxPoint x="560" y="600"/>
                            <mxPoint x="310" y="600"/>
                            <mxPoint x="310" y="670"/>
                        </Array>
                    </mxGeometry>
                </mxCell>
                <mxCell id="3" value="WEB" style="rounded=0;whiteSpace=wrap;html=1;movable=0;resizable=0;rotatable=0;deletable=0;editable=0;connectable=0;" parent="1" vertex="1">
                    <mxGeometry x="530" y="500" width="120" height="60" as="geometry"/>
                </mxCell>
                <mxCell id="8" style="edgeStyle=none;html=1;exitX=0.5;exitY=0;exitDx=0;exitDy=0;fillColor=#dae8fc;strokeColor=#6c8ebf;movable=0;resizable=0;rotatable=0;deletable=0;editable=0;connectable=0;startArrow=classic;startFill=1;endArrow=none;endFill=0;" parent="1" source="4" target="5" edge="1">
                    <mxGeometry relative="1" as="geometry"/>
                </mxCell>
                <mxCell id="4" value="Prometheus" style="rounded=0;whiteSpace=wrap;html=1;movable=0;resizable=0;rotatable=0;deletable=0;editable=0;connectable=0;" parent="1" vertex="1">
                    <mxGeometry x="150" y="640" width="120" height="60" as="geometry"/>
                </mxCell>
                <mxCell id="5" value="Grafana" style="rounded=0;whiteSpace=wrap;html=1;movable=0;resizable=0;rotatable=0;deletable=0;editable=0;connectable=0;" parent="1" vertex="1">
                    <mxGeometry x="150" y="360" width="120" height="60" as="geometry"/>
                </mxCell>
                <mxCell id="13" value="" style="edgeStyle=none;html=1;fillColor=#d5e8d4;strokeColor=#82b366;movable=0;resizable=0;rotatable=0;deletable=0;editable=0;connectable=0;startArrow=classic;startFill=1;endArrow=none;endFill=0;" parent="1" source="9" target="10" edge="1">
                    <mxGeometry relative="1" as="geometry"/>
                </mxCell>
                <mxCell id="9" value="ElasticSearch" style="rounded=0;whiteSpace=wrap;html=1;movable=0;resizable=0;rotatable=0;deletable=0;editable=0;connectable=0;fillColor=#18141D;" parent="1" vertex="1">
                    <mxGeometry x="630" y="640" width="120" height="60" as="geometry"/>
                </mxCell>
                <mxCell id="10" value="Kibana" style="rounded=0;whiteSpace=wrap;html=1;movable=0;resizable=0;rotatable=0;deletable=0;editable=0;connectable=0;" parent="1" vertex="1">
                    <mxGeometry x="630" y="360" width="120" height="60" as="geometry"/>
                </mxCell>
                <mxCell id="56" style="edgeStyle=none;html=1;exitX=0.75;exitY=1;exitDx=0;exitDy=0;entryX=0.25;entryY=0;entryDx=0;entryDy=0;movable=0;resizable=0;rotatable=0;deletable=0;editable=0;connectable=0;" parent="1" source="39" target="3" edge="1">
                    <mxGeometry relative="1" as="geometry">
                        <Array as="points">
                            <mxPoint x="400" y="470"/>
                            <mxPoint x="560" y="470"/>
                        </Array>
                    </mxGeometry>
                </mxCell>
                <mxCell id="67" style="edgeStyle=none;html=1;exitX=0.25;exitY=1;exitDx=0;exitDy=0;entryX=0.75;entryY=0;entryDx=0;entryDy=0;movable=0;resizable=0;rotatable=0;deletable=0;editable=0;connectable=0;" parent="1" source="39" target="2" edge="1">
                    <mxGeometry relative="1" as="geometry"/>
                </mxCell>
                <mxCell id="39" value="L7 LoadBalancer" style="rounded=0;whiteSpace=wrap;html=1;fillStyle=auto;movable=0;resizable=0;rotatable=0;deletable=0;editable=0;connectable=0;" parent="1" vertex="1">
                    <mxGeometry x="310" y="360" width="120" height="60" as="geometry"/>
                </mxCell>
                <mxCell id="43" style="edgeStyle=none;html=1;exitX=0.75;exitY=1;exitDx=0;exitDy=0;entryX=0.75;entryY=0;entryDx=0;entryDy=0;fillColor=#b0e3e6;strokeColor=#0e8088;movable=0;resizable=0;rotatable=0;deletable=0;editable=0;connectable=0;" parent="1" source="40" target="9" edge="1">
                    <mxGeometry relative="1" as="geometry">
                        <Array as="points">
                            <mxPoint x="560" y="450"/>
                            <mxPoint x="590" y="450"/>
                            <mxPoint x="650" y="450"/>
                            <mxPoint x="720" y="450"/>
                        </Array>
                    </mxGeometry>
                </mxCell>
                <mxCell id="46" style="edgeStyle=none;html=1;exitX=0.25;exitY=1;exitDx=0;exitDy=0;entryX=0.25;entryY=0;entryDx=0;entryDy=0;fillColor=#b0e3e6;strokeColor=#0e8088;movable=0;resizable=0;rotatable=0;deletable=0;editable=0;connectable=0;" parent="1" source="40" target="4" edge="1">
                    <mxGeometry relative="1" as="geometry">
                        <Array as="points">
                            <mxPoint x="500" y="450"/>
                            <mxPoint x="180" y="450"/>
                        </Array>
                    </mxGeometry>
                </mxCell>
                <mxCell id="49" style="edgeStyle=none;html=1;exitX=0;exitY=0.75;exitDx=0;exitDy=0;entryX=1;entryY=0.75;entryDx=0;entryDy=0;fillColor=#b0e3e6;strokeColor=#0e8088;movable=0;resizable=0;rotatable=0;deletable=0;editable=0;connectable=0;" parent="1" source="40" target="39" edge="1">
                    <mxGeometry relative="1" as="geometry"/>
                </mxCell>
                <mxCell id="53" style="edgeStyle=none;html=1;entryX=0.25;entryY=0;entryDx=0;entryDy=0;fillColor=#b0e3e6;strokeColor=#0e8088;movable=0;resizable=0;rotatable=0;deletable=0;editable=0;connectable=0;" parent="1" target="2" edge="1">
                    <mxGeometry relative="1" as="geometry">
                        <mxPoint x="280" y="450" as="sourcePoint"/>
                    </mxGeometry>
                </mxCell>
                <mxCell id="54" style="edgeStyle=none;html=1;entryX=0.75;entryY=0;entryDx=0;entryDy=0;fillColor=#b0e3e6;strokeColor=#0e8088;movable=0;resizable=0;rotatable=0;deletable=0;editable=0;connectable=0;" parent="1" target="3" edge="1">
                    <mxGeometry relative="1" as="geometry">
                        <mxPoint x="620" y="450" as="sourcePoint"/>
                    </mxGeometry>
                </mxCell>
                <mxCell id="40" value="Bastion" style="rounded=0;whiteSpace=wrap;html=1;fillStyle=auto;movable=0;resizable=0;rotatable=0;deletable=0;editable=0;connectable=0;" parent="1" vertex="1">
                    <mxGeometry x="470" y="360" width="120" height="60" as="geometry"/>
                </mxCell>
                <mxCell id="48" value="" style="endArrow=classic;html=1;entryX=0.25;entryY=1;entryDx=0;entryDy=0;fillColor=#b0e3e6;strokeColor=#0e8088;movable=0;resizable=0;rotatable=0;deletable=0;editable=0;connectable=0;" parent="1" target="10" edge="1">
                    <mxGeometry width="50" height="50" relative="1" as="geometry">
                        <mxPoint x="660" y="450" as="sourcePoint"/>
                        <mxPoint x="670" y="420" as="targetPoint"/>
                    </mxGeometry>
                </mxCell>
                <mxCell id="62" style="edgeStyle=none;html=1;exitX=0;exitY=0.5;exitDx=0;exitDy=0;entryX=0.5;entryY=0;entryDx=0;entryDy=0;movable=0;resizable=0;rotatable=0;deletable=0;editable=0;connectable=0;" parent="1" source="60" target="5" edge="1">
                    <mxGeometry relative="1" as="geometry">
                        <Array as="points">
                            <mxPoint x="210" y="220"/>
                        </Array>
                    </mxGeometry>
                </mxCell>
                <mxCell id="63" style="edgeStyle=none;html=1;exitX=1;exitY=0.5;exitDx=0;exitDy=0;entryX=0.5;entryY=0;entryDx=0;entryDy=0;movable=0;resizable=0;rotatable=0;deletable=0;editable=0;connectable=0;" parent="1" source="60" target="10" edge="1">
                    <mxGeometry relative="1" as="geometry">
                        <Array as="points">
                            <mxPoint x="690" y="220"/>
                        </Array>
                    </mxGeometry>
                </mxCell>
                <mxCell id="64" style="edgeStyle=none;html=1;exitX=0.25;exitY=1;exitDx=0;exitDy=0;entryX=0.5;entryY=0;entryDx=0;entryDy=0;movable=0;resizable=0;rotatable=0;deletable=0;editable=0;connectable=0;" parent="1" source="60" target="39" edge="1">
                    <mxGeometry relative="1" as="geometry">
                        <Array as="points">
                            <mxPoint x="430" y="300"/>
                            <mxPoint x="370" y="300"/>
                        </Array>
                    </mxGeometry>
                </mxCell>
                <mxCell id="65" style="edgeStyle=none;html=1;exitX=0.75;exitY=1;exitDx=0;exitDy=0;entryX=0.5;entryY=0;entryDx=0;entryDy=0;fillColor=#b0e3e6;strokeColor=#0e8088;movable=0;resizable=0;rotatable=0;deletable=0;editable=0;connectable=0;" parent="1" source="60" target="40" edge="1">
                    <mxGeometry relative="1" as="geometry">
                        <Array as="points">
                            <mxPoint x="470" y="300"/>
                            <mxPoint x="530" y="300"/>
                        </Array>
                    </mxGeometry>
                </mxCell>
                <mxCell id="66" value="" style="group;movable=0;resizable=0;rotatable=0;deletable=0;editable=0;connectable=0;" parent="1" vertex="1" connectable="0">
                    <mxGeometry x="410" y="180" width="80" height="80" as="geometry"/>
                </mxCell>
                <mxCell id="60" value="" style="whiteSpace=wrap;html=1;aspect=fixed;fillStyle=auto;movable=0;resizable=0;rotatable=0;deletable=0;editable=0;connectable=0;" parent="66" vertex="1">
                    <mxGeometry width="80" height="80" as="geometry"/>
                </mxCell>
                <mxCell id="61" value="" style="shape=umlActor;verticalLabelPosition=bottom;verticalAlign=top;html=1;outlineConnect=0;fillStyle=auto;movable=0;resizable=0;rotatable=0;deletable=0;editable=0;connectable=0;" parent="66" vertex="1">
                    <mxGeometry x="25" y="10" width="30" height="60" as="geometry"/>
                </mxCell>
                <mxCell id="72" value="" style="endArrow=none;html=1;movable=0;resizable=0;rotatable=0;deletable=0;editable=0;connectable=0;" parent="1" edge="1">
                    <mxGeometry width="50" height="50" relative="1" as="geometry">
                        <mxPoint x="600" y="760" as="sourcePoint"/>
                        <mxPoint x="660" y="760" as="targetPoint"/>
                    </mxGeometry>
                </mxCell>
                <mxCell id="73" value="HTTP(S)" style="text;html=1;strokeColor=none;fillColor=none;align=left;verticalAlign=middle;whiteSpace=wrap;rounded=0;fillStyle=auto;movable=0;resizable=0;rotatable=0;deletable=0;editable=0;connectable=0;" parent="1" vertex="1">
                    <mxGeometry x="680" y="745" width="60" height="30" as="geometry"/>
                </mxCell>
                <mxCell id="74" value="" style="endArrow=none;html=1;fillColor=#b0e3e6;strokeColor=#0e8088;movable=0;resizable=0;rotatable=0;deletable=0;editable=0;connectable=0;" parent="1" edge="1">
                    <mxGeometry width="50" height="50" relative="1" as="geometry">
                        <mxPoint x="600" y="790" as="sourcePoint"/>
                        <mxPoint x="660" y="790" as="targetPoint"/>
                    </mxGeometry>
                </mxCell>
                <mxCell id="75" value="SSH" style="text;html=1;strokeColor=none;fillColor=none;align=left;verticalAlign=middle;whiteSpace=wrap;rounded=0;fillStyle=auto;movable=0;resizable=0;rotatable=0;deletable=0;editable=0;connectable=0;" parent="1" vertex="1">
                    <mxGeometry x="680" y="775" width="60" height="30" as="geometry"/>
                </mxCell>
                <mxCell id="76" value="" style="endArrow=none;html=1;fillColor=#dae8fc;strokeColor=#6c8ebf;movable=0;resizable=0;rotatable=0;deletable=0;editable=0;connectable=0;" parent="1" edge="1">
                    <mxGeometry width="50" height="50" relative="1" as="geometry">
                        <mxPoint x="600" y="820" as="sourcePoint"/>
                        <mxPoint x="660" y="820" as="targetPoint"/>
                    </mxGeometry>
                </mxCell>
                <mxCell id="77" value="Monitoring (HTTP)" style="text;html=1;strokeColor=none;fillColor=none;align=left;verticalAlign=middle;whiteSpace=wrap;rounded=0;fillStyle=auto;movable=0;resizable=0;rotatable=0;deletable=0;editable=0;connectable=0;" parent="1" vertex="1">
                    <mxGeometry x="680" y="805" width="110" height="30" as="geometry"/>
                </mxCell>
                <mxCell id="78" value="" style="endArrow=none;html=1;fillColor=#d5e8d4;strokeColor=#82b366;movable=0;resizable=0;rotatable=0;deletable=0;editable=0;connectable=0;" parent="1" edge="1">
                    <mxGeometry width="50" height="50" relative="1" as="geometry">
                        <mxPoint x="600" y="850" as="sourcePoint"/>
                        <mxPoint x="660" y="850" as="targetPoint"/>
                    </mxGeometry>
                </mxCell>
                <mxCell id="79" value="Logs (HTTP)" style="text;html=1;strokeColor=none;fillColor=none;align=left;verticalAlign=middle;whiteSpace=wrap;rounded=0;fillStyle=auto;movable=0;resizable=0;rotatable=0;deletable=0;editable=0;connectable=0;" parent="1" vertex="1">
                    <mxGeometry x="680" y="835" width="117" height="30" as="geometry"/>
                </mxCell>
                <mxCell id="81" value="" style="whiteSpace=wrap;html=1;aspect=fixed;fillStyle=hatch;fillColor=#423C35;strokeColor=#b46504;movable=0;resizable=0;rotatable=0;deletable=0;editable=0;connectable=0;" parent="1" vertex="1">
                    <mxGeometry x="170" y="750" width="30" height="30" as="geometry"/>
                </mxCell>
                <mxCell id="82" value="" style="whiteSpace=wrap;html=1;aspect=fixed;fillStyle=hatch;fillColor=#540800;strokeColor=#ae4132;movable=0;resizable=0;rotatable=0;deletable=0;editable=0;connectable=0;" parent="1" vertex="1">
                    <mxGeometry x="170" y="800" width="30" height="30" as="geometry"/>
                </mxCell>
                <mxCell id="87" value="" style="whiteSpace=wrap;html=1;aspect=fixed;fillStyle=hatch;fillColor=#000066;strokeColor=#007FFF;movable=0;resizable=0;rotatable=0;deletable=0;editable=0;connectable=0;" vertex="1" parent="1">
                    <mxGeometry x="170" y="850" width="30" height="30" as="geometry"/>
                </mxCell>
                <mxCell id="83" value="Public network" style="text;html=1;strokeColor=none;fillColor=none;align=left;verticalAlign=middle;whiteSpace=wrap;rounded=0;fillStyle=hatch;movable=0;resizable=0;rotatable=0;deletable=0;editable=0;connectable=0;" parent="1" vertex="1">
                    <mxGeometry x="220" y="750" width="90" height="30" as="geometry"/>
                </mxCell>
                <mxCell id="84" value="Private network a" style="text;html=1;strokeColor=none;fillColor=none;align=left;verticalAlign=middle;whiteSpace=wrap;rounded=0;fillStyle=hatch;movable=0;resizable=0;rotatable=0;deletable=0;editable=0;connectable=0;" parent="1" vertex="1">
                    <mxGeometry x="220" y="800" width="100" height="30" as="geometry"/>
                </mxCell>
                <mxCell id="88" value="Private network b" style="text;html=1;strokeColor=none;fillColor=none;align=left;verticalAlign=middle;whiteSpace=wrap;rounded=0;fillStyle=hatch;movable=1;resizable=1;rotatable=1;deletable=1;editable=1;connectable=1;" vertex="1" parent="1">
                    <mxGeometry x="220" y="850" width="100" height="30" as="geometry"/>
                </mxCell>
            </root>
        </mxGraphModel>
    </diagram>
</mxfile>